<svg width="32" height="33" viewBox="0 0 32 33" fill="none" xmlns="http://www.w3.org/2000/svg">
<g clip-path="url(#clip0_208_405)">
<path d="M18.6636 3.85985C19.0171 3.74712 19.4066 3.71339 19.8158 3.7752C20.2249 3.83701 20.6308 3.95643 21.04 4.15397C21.7307 4.48798 22.2905 4.92029 22.7357 5.46832C23.1776 6.00607 23.5181 6.63275 23.7473 7.35147C24.0813 8.39875 24.2026 9.59305 24.098 10.9272C23.9934 12.2614 23.7218 13.6489 23.2801 15.0793C22.826 16.5384 22.266 17.9572 21.6047 19.3238C20.9362 20.6809 20.1682 21.9808 19.3073 23.2124C18.4564 24.4113 17.5531 25.446 16.6007 26.2927C15.6384 27.1425 14.6467 27.7303 13.6255 28.0559C12.9578 28.2689 12.2802 28.3492 11.6125 28.2907C10.9349 28.2353 10.2606 28.0205 9.59607 27.6329C8.76789 27.1731 8.23428 26.5514 7.99198 25.7916C7.9003 25.5041 7.86753 25.1979 7.9035 24.9036C7.9362 24.5991 8.03764 24.3065 8.234 24.0403L10.6853 20.6343C10.8718 20.3712 11.0551 20.1657 11.2417 20.0044C11.4184 19.8462 11.6082 19.7291 11.7948 19.6696C12.0305 19.5944 12.2891 19.5912 12.5607 19.6629C12.8292 19.7243 13.127 19.8443 13.4413 20.0155L14.4659 20.5485C14.6099 20.627 14.7539 20.6376 14.911 20.5875C14.9896 20.5624 15.0551 20.5302 15.1271 20.4847C15.1958 20.4288 15.2449 20.3792 15.2973 20.3399C15.5624 20.0517 15.8831 19.5988 16.2496 18.9842C16.6129 18.3593 16.9761 17.7005 17.3263 17.0006C17.6699 16.2802 17.9808 15.5929 18.2491 14.9078C18.5109 14.2361 18.6647 13.7006 18.7301 13.2952C18.7334 13.2376 18.7432 13.1666 18.7497 13.0853C18.753 12.9938 18.7366 12.9085 18.7071 12.8161C18.6515 12.6416 18.55 12.5269 18.406 12.4484L17.4207 11.9029C17.0933 11.7245 16.8282 11.5376 16.635 11.339C16.4222 11.1467 16.2782 10.9325 16.1963 10.6758C16.1341 10.4807 16.1079 10.2628 16.1242 10.0088C16.1406 9.75471 16.1929 9.47785 16.278 9.16793L17.5017 5.03351C17.5933 4.71019 17.7406 4.45961 17.9501 4.26838C18.1628 4.08742 18.3887 3.94753 18.6636 3.85985Z" stroke="black" stroke-width="1.5" stroke-miterlimit="10"/>
</g>
<defs>
<clipPath id="clip0_208_405">
<rect width="25.8646" height="24.7359" fill="white" transform="translate(7.8584 32.1574) rotate(-107.688)"/>
</clipPath>
</defs>
</svg>
