<svg width="17" height="25" viewBox="0 0 17 25" fill="none" xmlns="http://www.w3.org/2000/svg">
<path d="M8.24686 0C3.68753 0 0 3.83861 0 8.58475C0 15.0233 8.24686 24.5279 8.24686 24.5279C8.24686 24.5279 16.4937 15.0233 16.4937 8.58475C16.4937 3.83861 12.8062 0 8.24686 0ZM8.24686 11.6507C7.46572 11.6507 6.71657 11.3277 6.16422 10.7527C5.61186 10.1777 5.30155 9.3979 5.30155 8.58475C5.30155 7.7716 5.61186 6.99176 6.16422 6.41678C6.71657 5.84179 7.46572 5.51877 8.24686 5.51877C9.02801 5.51877 9.77716 5.84179 10.3295 6.41678C10.8819 6.99176 11.1922 7.7716 11.1922 8.58475C11.1922 9.3979 10.8819 10.1777 10.3295 10.7527C9.77716 11.3277 9.02801 11.6507 8.24686 11.6507Z" fill="#910303"/>
</svg>
