<svg width="26" height="15" viewBox="0 0 26 15" fill="none" xmlns="http://www.w3.org/2000/svg">
<path d="M0.540074 1.43449C0.540074 1.43449 0.340176 0.696549 0.833303 0.317287C1.32643 -0.0619757 1.99532 0.00447543 2.69271 0.00447543L23.7287 0.00447436C24.4261 0.00447436 24.9153 -0.0619757 25.4085 0.317287C25.9016 0.696549 25.9348 0.898128 25.9348 1.43449V13.5685C25.9348 14.1049 25.9016 14.2829 25.4085 14.6622C24.9153 15.0415 24.0006 14.9985 23.3032 14.9985H3.17164C2.47425 14.9985 1.32645 15.0415 0.833324 14.6622C0.340198 14.2829 0.540057 13.9668 0.540057 13.4305L0.540074 1.43449ZM3.879 1.43449L8.35268 4.8318L13.2107 8.1575L21.7316 1.43449H3.879ZM24.5369 1.43449L14.0771 9.27409C13.8374 9.43565 13.5295 9.52471 13.2107 9.52471C12.8919 9.52471 12.584 9.43565 12.3443 9.27409L1.90532 1.43449V13.5685H24.5369V1.43449Z" fill="#0D0D0D"/>
</svg>
