<svg width="31" height="30" viewBox="0 0 31 30" fill="none" xmlns="http://www.w3.org/2000/svg">
<path d="M24.024 20.642L23.9979 20.6768L24.0287 20.7074L30.021 26.6694C30.0211 26.6695 30.0211 26.6695 30.0212 26.6696C30.7555 27.4191 30.7549 28.6344 30.0047 29.3663L30.0035 29.3674C29.6372 29.7496 29.137 29.9329 28.6527 29.9329C28.1694 29.9329 27.6684 29.7332 27.3011 29.3667L21.2913 23.3701L21.2613 23.3402L21.2269 23.3648C19.1118 24.8795 16.5194 25.7814 13.7223 25.7814C6.60985 25.7814 0.827954 20.0121 0.827954 12.9157C0.827954 5.81929 6.60985 0.05 13.7223 0.05C20.8347 0.05 26.6166 5.81929 26.6166 12.9157C26.6166 15.8086 25.6445 18.4805 24.024 20.642ZM4.66603 12.9157C4.66603 17.8979 8.72934 21.9521 13.7223 21.9521C18.7152 21.9521 22.7785 17.8979 22.7785 12.9157C22.7785 7.93356 18.7152 3.87939 13.7223 3.87939C8.72934 3.87939 4.66603 7.93356 4.66603 12.9157Z" fill="#ADA9A9" stroke="#B5B5B5" stroke-width="0.1"/>
</svg>
