<svg width="36" height="35" viewBox="0 0 36 35" fill="none" xmlns="http://www.w3.org/2000/svg">
<path d="M18.2036 18.593C18.0681 18.5766 17.9311 18.5766 17.7956 18.593C16.3539 18.5464 14.9875 17.9636 13.9851 16.9678C12.9827 15.972 12.4228 14.6411 12.4236 13.2563C12.4236 10.3024 14.9056 7.90336 17.9996 7.90336C19.4606 7.90092 20.8642 8.44977 21.9076 9.43157C22.951 10.4134 23.5508 11.7495 23.5775 13.1518C23.6043 14.5542 23.0559 15.9105 22.0507 16.9284C21.0454 17.9462 19.6638 18.544 18.2036 18.593ZM29.4576 29.3642C26.3335 32.1207 22.2429 33.6472 17.9996 33.64C13.5796 33.64 9.5676 32.0243 6.5416 29.3642C6.7116 27.8301 7.7316 26.3286 9.5506 25.1536C14.2086 22.1834 21.8246 22.1834 26.4486 25.1536C28.2676 26.3286 29.2876 27.8301 29.4576 29.3642Z" stroke="#FFF0F0" stroke-width="2" stroke-linecap="round" stroke-linejoin="round"/>
<path d="M18 33.64C27.3891 33.64 35 26.3335 35 17.32C35 8.30646 27.3891 1 18 1C8.6109 1 1 8.30646 1 17.32C1 26.3335 8.6109 33.64 18 33.64Z" stroke="#FFF0F0" stroke-width="2" stroke-linecap="round" stroke-linejoin="round"/>
</svg>
