<svg width="31" height="32" viewBox="0 0 31 32" fill="none" xmlns="http://www.w3.org/2000/svg">
<g clip-path="url(#clip0_136_236)">
<path d="M1.84613 14.0651C1.84613 14.0651 15.1184 7.48298 19.7123 5.16414C21.4799 4.23419 27.462 1.26317 27.462 1.26317C27.462 1.26317 30.2183 -0.0411762 29.9886 3.12307C29.9087 4.42742 29.2995 8.96849 28.6803 13.8839C27.7616 20.8405 26.7629 28.4492 26.7629 28.4492C26.7629 28.4492 26.6131 30.5868 25.3048 30.9492C23.9966 31.3236 21.8495 29.6448 21.47 29.2825C21.1604 29.0047 15.7176 24.826 13.7203 22.7849C13.181 22.2294 12.5718 21.1182 13.8002 19.8139C16.5565 16.7583 19.8621 12.954 21.8495 10.5385C22.7682 9.42742 23.687 6.8308 19.8521 9.98298C14.4094 14.524 9.03654 18.7994 9.03654 18.7994C9.03654 18.7994 7.80818 19.7294 5.51124 18.896C3.2143 18.0627 0.527886 16.9516 0.527886 16.9516C0.527886 16.9516 -1.29968 15.5506 1.84613 14.0651Z" fill="white"/>
</g>
<defs>
<clipPath id="clip0_136_236">
<rect width="30.0022" height="30.0064" fill="white" transform="translate(0 0.996826)"/>
</clipPath>
</defs>
</svg>
