<svg width="25" height="25" viewBox="0 0 25 25" fill="none" xmlns="http://www.w3.org/2000/svg">
<path d="M18.4949 18.4971C18.2867 18.6524 18.0413 18.7301 17.7589 18.7301C17.5094 18.7301 17.2733 18.6524 17.0496 18.4971C16.8249 18.3417 16.7126 18.1159 16.7126 17.8226V9.83772H16.6888L13.6128 16.0279C13.5205 16.2269 13.3849 16.4031 13.2159 16.544C13.0664 16.6585 12.8685 16.7157 12.62 16.7157C12.3726 16.7157 12.1737 16.6585 12.0252 16.544C11.8559 16.4034 11.7203 16.2271 11.6284 16.0279L8.55228 9.83874H8.52857V17.8215C8.53454 17.9544 8.50543 18.0865 8.44415 18.2048C8.38286 18.3231 8.29151 18.4235 8.17911 18.4961C7.96834 18.6453 7.71651 18.727 7.45751 18.7301C7.17403 18.7301 6.93384 18.6524 6.73385 18.4971C6.5349 18.3417 6.4349 18.1159 6.4349 17.8226V7.11104C6.4349 6.80035 6.53386 6.50908 6.73385 6.23928C6.93178 5.96947 7.28742 5.83457 7.80182 5.83457C8.18324 5.83457 8.47703 5.92041 8.68423 6.09211C8.89041 6.26483 9.07596 6.52237 9.24296 6.86576L12.6211 13.7683H12.6458L15.9992 6.86576C16.1641 6.52237 16.3518 6.26483 16.559 6.09211C16.7651 5.92041 17.0589 5.83457 17.4403 5.83457C17.9537 5.83457 18.3104 5.96947 18.5083 6.23928C18.7073 6.5101 18.8073 6.80137 18.8073 7.11206V17.8205C18.8073 18.1149 18.7031 18.3407 18.4959 18.495L18.4949 18.4971ZM12.586 22.7445C18.4186 22.7445 23.1822 18.0024 23.1822 12.1904C23.1822 6.44674 18.4372 1.78338 12.586 1.78338C6.73694 1.78338 2.04036 6.41915 2.04036 12.1904C2.04036 17.9033 6.90085 22.7445 12.586 22.7445ZM12.586 24.5279C5.90504 24.5279 0.240479 18.8865 0.240479 12.1904C0.240479 5.4319 5.74526 0 12.586 0C19.4278 0 24.9811 5.45745 24.9811 12.1904C24.9811 18.9856 19.4144 24.5279 12.586 24.5279Z" fill="#94B896"/>
</svg>
