<svg width="31" height="30" viewBox="0 0 31 30" fill="none" xmlns="http://www.w3.org/2000/svg">
<g clip-path="url(#clip0_136_238)">
<path d="M0.00219727 30L2.16229 21.9723C0.94518 19.774 0.29825 17.3132 0.29825 14.8195C0.29825 6.64965 6.95395 0 15.1447 0C23.3355 0 30.0022 6.64965 30.0022 14.8195C30.0022 22.9894 23.3355 29.6391 15.1447 29.6391C12.6886 29.6391 10.2544 29.0157 8.08334 27.8454L0.00219727 30ZM8.48904 24.8268L8.99343 25.1331C10.8575 26.2486 12.9847 26.8283 15.1447 26.8283C21.7895 26.8283 27.1952 21.4364 27.1952 14.8086C27.1952 8.18082 21.7895 2.78892 15.1447 2.78892C8.5 2.78892 3.0943 8.18082 3.0943 14.8086C3.0943 16.996 3.70834 19.1506 4.85965 21.0427L5.16667 21.5567L3.96053 26.0408L8.48904 24.8268Z" fill="white"/>
<path fill-rule="evenodd" clip-rule="evenodd" d="M20.6711 16.8757C20.057 16.5147 19.2676 16.0991 18.5439 16.3944C17.9956 16.6241 17.6338 17.4772 17.2829 17.9256C17.0965 18.1553 16.8772 18.1881 16.6031 18.0787C14.5307 17.2584 12.9408 15.8695 11.8005 13.9664C11.6031 13.6711 11.636 13.4415 11.8772 13.168C12.2281 12.7634 12.6557 12.304 12.7544 11.7572C12.8531 11.2103 12.5899 10.565 12.3597 10.0838C12.0746 9.46042 11.7456 8.57452 11.1206 8.22454C10.5285 7.8855 9.77195 8.07143 9.26756 8.48703C8.3794 9.20887 7.95177 10.3244 7.9737 11.44C7.9737 11.7572 8.01756 12.0743 8.09432 12.3806C8.26976 13.1134 8.60967 13.8024 8.99344 14.4586C9.27853 14.9508 9.59651 15.432 9.93642 15.8913C11.0439 17.3897 12.4255 18.7021 14.0263 19.6755C14.8268 20.1677 15.682 20.5942 16.5702 20.8895C17.568 21.2176 18.4562 21.5567 19.5417 21.3598C20.6711 21.1411 21.7895 20.452 22.2281 19.3583C22.3597 19.0412 22.4255 18.6802 22.3487 18.3412C22.1952 17.6303 21.2412 17.2147 20.6711 16.8757Z" fill="white"/>
</g>
<defs>
<clipPath id="clip0_136_238">
<rect width="30" height="30" fill="white" transform="translate(0.00219727)"/>
</clipPath>
</defs>
</svg>
